<svg xmlns="http://www.w3.org/2000/svg" width="20.406" height="20.545" viewBox="0 0 20.406 20.545">
  <defs>
    <style>
      .cls-1 {
        fill: #515151;
      }
    </style>
  </defs>
  <path id="new_vector_shape_done_копия_2" data-name="new_vector_shape_done копия 2" class="cls-1" d="M1194.26,605.59l-.1,0-.091,0h-.208c-.077,0-.134,0-.184-.006h0a.078.078,0,0,0-.019,0,.108.108,0,0,1-.025,0l-.012,0a.74.74,0,0,0-.147-.015l-.073,0h-.1a.293.293,0,0,0-.056,0,.34.34,0,0,1-.073-.006,1.573,1.573,0,0,0-.24-.028,1.482,1.482,0,0,1-.243-.029.237.237,0,0,0-.06-.005h-.015a.17.17,0,0,1-.044,0,2.369,2.369,0,0,0-.25-.041,2.193,2.193,0,0,1-.267-.045c-.047-.012-.1-.021-.144-.029a1.58,1.58,0,0,1-.177-.038c-.119-.034-.24-.065-.356-.1a6.527,6.527,0,0,1-.687-.2,12.553,12.553,0,0,1-1.65-.742,8.979,8.979,0,0,1-.818-.519c-.209-.148-.409-.3-.6-.444-.072-.054-.14-.115-.205-.174s-.132-.119-.2-.172a.574.574,0,0,1-.074-.072.582.582,0,0,0-.079-.076,1.674,1.674,0,0,1-.193-.183l-.074-.077-.071-.069,0,0a1.667,1.667,0,0,1-.184-.2l-.058-.053a1.7,1.7,0,0,0-.126-.143,1.64,1.64,0,0,1-.128-.146c-.045-.06-.094-.119-.142-.175s-.1-.119-.145-.18l-.1-.143-.007-.01c-.09-.123-.182-.25-.271-.377a11.553,11.553,0,0,1-.838-1.5l-.022-.045a2.046,2.046,0,0,1-.082-.2c-.019-.052-.039-.105-.062-.158a8,8,0,0,1-.348-1.018c-.03-.1-.061-.207-.092-.311a2.977,2.977,0,0,1-.072-.316c-.016-.085-.032-.168-.052-.248a2.07,2.07,0,0,1-.046-.271,2.305,2.305,0,0,0-.04-.249.737.737,0,0,1-.015-.115.687.687,0,0,0-.014-.107v-.058a.785.785,0,0,1-.014-.106.85.85,0,0,0-.015-.111.378.378,0,0,1,0-.1.378.378,0,0,0,0-.1,1.394,1.394,0,0,1-.019-.21v-.142a.108.108,0,0,1,0-.039.143.143,0,0,0,0-.029,2.248,2.248,0,0,1-.006-.309c0-.046,0-.089,0-.13v-.183a.144.144,0,0,1,0-.024.083.083,0,0,0,0-.019,1.224,1.224,0,0,1,.014-.26.377.377,0,0,0,.006-.082.323.323,0,0,1,0-.067.385.385,0,0,0,0-.1.378.378,0,0,1,0-.1,1.672,1.672,0,0,0,.028-.225,1.637,1.637,0,0,1,.029-.228l0-.036,0-.019c0-.019,0-.038,0-.056.02-.084.032-.173.044-.258a2.356,2.356,0,0,1,.052-.29c.018-.068.032-.138.045-.207a2.632,2.632,0,0,1,.06-.261c.031-.1.06-.2.09-.307a7.106,7.106,0,0,1,.312-.925c.03-.068.055-.136.079-.2a2.528,2.528,0,0,1,.1-.251l.014-.029c.164-.332.319-.645.492-.959.029-.051.064-.1.1-.154s.046-.068.065-.1c.123-.2.254-.4.411-.621.063-.09.132-.177.2-.261l0,0c.05-.062.1-.127.15-.192a2.231,2.231,0,0,1,.154-.18c.051-.056.1-.112.148-.172a.388.388,0,0,1,.054-.055.423.423,0,0,0,.052-.052,1.827,1.827,0,0,1,.209-.224l.082-.08.057-.058.014-.014a3.75,3.75,0,0,1,.4-.37.248.248,0,0,0,.033-.034.253.253,0,0,1,.033-.034c.043-.033.084-.069.124-.1s.085-.074.129-.108l.146-.11c.255-.193.516-.391.791-.564.38-.238.775-.444,1.076-.6.136-.068.278-.127.416-.184.082-.034.167-.069.249-.105a.65.65,0,0,1,.086-.029.7.7,0,0,0,.086-.029,5.536,5.536,0,0,1,.634-.217l.011,0,.163-.049c.141-.044.29-.075.434-.105.113-.024.228-.048.341-.078a1.224,1.224,0,0,1,.139-.025,1.216,1.216,0,0,0,.129-.023,1.667,1.667,0,0,1,.237-.035,1.678,1.678,0,0,0,.232-.034h.058a1.042,1.042,0,0,1,.159-.018,1.078,1.078,0,0,0,.166-.019h.091a1.3,1.3,0,0,1,.215-.019h.134a.443.443,0,0,1,.123-.012h.651a.094.094,0,0,0,.055.011h.051a.533.533,0,0,1,.105.009h.109a.644.644,0,0,0,.079.009.592.592,0,0,1,.084.01h.077a1.9,1.9,0,0,0,.252.032,1.716,1.716,0,0,1,.265.035.225.225,0,0,0,.053,0,.22.22,0,0,1,.052,0c.076.019.158.032.236.044a2.383,2.383,0,0,1,.266.052.277.277,0,0,0,.058.009.275.275,0,0,1,.062.01c.088.028.181.049.271.068s.182.04.268.067l.145.043.009,0a5.671,5.671,0,0,1,.654.223.153.153,0,0,0,.037.01.173.173,0,0,1,.035.009c.053.02.115.048.164.071l.013.006a.238.238,0,0,0,.046.014.254.254,0,0,1,.045.014c.065.03.132.059.2.086l.006,0c.1.041.2.084.293.132.276.14.543.283.794.424.033.018.066.041.1.063l.005,0c.025.017.05.034.074.049.265.167.485.314.693.463.048.034.094.073.139.11s.076.063.115.092c.072.053.14.11.206.165l.009.007c.054.045.11.092.168.136a.977.977,0,0,1,.084.075,1,1,0,0,0,.083.074l.022.024.021.024a.685.685,0,0,1,.072.068.639.639,0,0,0,.071.067,1.085,1.085,0,0,1,.138.133l.048.051.053.051a1.109,1.109,0,0,1,.129.135l.038.037.038.036a1.748,1.748,0,0,0,.141.159,1.723,1.723,0,0,1,.141.159c.038.051.082.1.12.146s.089.1.128.158.1.133.148.2l.009.012c.132.176.268.357.388.548.177.284.36.6.574,1,.079.149.148.31.215.465.035.083.072.169.11.252a.256.256,0,0,1,.014.046.257.257,0,0,0,.014.046l.021.049c.02.045.04.089.055.13a.185.185,0,0,1,.008.034.149.149,0,0,0,.011.038,6.064,6.064,0,0,1,.276.878v.006c.033.127.068.258.1.387a2.347,2.347,0,0,1,.057.286c.013.084.027.169.048.249,0,.028.005.056.008.083v.011a1.926,1.926,0,0,1,.039.262,2.051,2.051,0,0,0,.037.26.525.525,0,0,1,.01.1.5.5,0,0,0,.009.091v.077a.58.58,0,0,1,.009.076.693.693,0,0,0,.01.087v.111a.634.634,0,0,1,.01.135v.068a.627.627,0,0,1,.01.162c0,.018,0,.036,0,.054v.41c0,.014,0,.031,0,.047a.366.366,0,0,0,0,.057,1.231,1.231,0,0,1-.014.26v.111a1.143,1.143,0,0,0-.019.189,1.118,1.118,0,0,1-.018.183v.058a1.228,1.228,0,0,0-.023.183,1.2,1.2,0,0,1-.025.192c-.01.045-.016.094-.022.138a1.3,1.3,0,0,1-.026.156c-.025.1-.046.21-.066.313v.006a4.631,4.631,0,0,1-.1.453c-.02.065-.035.13-.049.193a2.135,2.135,0,0,1-.065.239c-.019.052-.037.107-.056.161l0,.006c-.019.058-.043.13-.068.194a.2.2,0,0,0-.008.036.152.152,0,0,1-.011.041c-.054.125-.1.254-.151.378-.074.195-.15.392-.242.576a10.915,10.915,0,0,1-.774,1.363c-.093.133-.19.266-.276.384l-.106.146c-.046.062-.1.122-.145.18s-.1.116-.142.176a2.278,2.278,0,0,1-.194.217,2.256,2.256,0,0,0-.194.217l-.157.153-.011.011-.079.082a1.777,1.777,0,0,1-.2.192l-.022.024-.006.006-.026.028a1.689,1.689,0,0,0-.145.129,1.715,1.715,0,0,1-.141.126c-.059.044-.115.093-.17.139s-.12.1-.183.149l-.059.044c-.144.107-.307.228-.468.342a11.3,11.3,0,0,1-1.123.665l-.035.019a.737.737,0,0,1-.081.036c-.026.01-.049.019-.072.031-.138.069-.284.134-.426.2l-.211.093c-.061.028-.125.05-.186.071s-.114.04-.167.063a.143.143,0,0,1-.041.011.174.174,0,0,0-.036.009c-.083.031-.173.061-.26.09l-.007,0-.154.052a.342.342,0,0,1-.064.015.359.359,0,0,0-.061.014c-.1.035-.21.06-.316.085s-.2.048-.3.079a.433.433,0,0,1-.088.015.5.5,0,0,0-.079.013,2.42,2.42,0,0,1-.275.053c-.082.012-.164.025-.242.044a.692.692,0,0,1-.11.016.669.669,0,0,0-.1.014h-.052a.51.51,0,0,1-.078.008.558.558,0,0,0-.09.01.825.825,0,0,1-.121.015.882.882,0,0,0-.118.014h-.091a.393.393,0,0,1-.068,0h-.017a.261.261,0,0,0-.063.005.625.625,0,0,1-.134.011h-.068A.517.517,0,0,1,1194.26,605.59Zm-.7-1.3a.212.212,0,0,1,.052.005l.271,0,.14,0,.071,0h.008l.132,0h.1a.688.688,0,0,0,.133-.01.412.412,0,0,1,.088-.006h.023a.258.258,0,0,0,.051,0h.091a.6.6,0,0,1,.071-.009.61.61,0,0,0,.072-.009h.068a.486.486,0,0,1,.079-.009.561.561,0,0,0,.088-.01c.09-.021.185-.034.277-.046a2.577,2.577,0,0,0,.3-.052.318.318,0,0,1,.06-.008.286.286,0,0,0,.069-.011c.094-.029.19-.049.284-.068a2.681,2.681,0,0,0,.309-.076c.076-.026.154-.049.23-.071.105-.031.214-.063.32-.1a8.182,8.182,0,0,0,.827-.346c.056-.029.111-.054.165-.078s.133-.06.2-.1c.25-.136.466-.261.661-.384a9.071,9.071,0,0,0,3.127-3.429,9.759,9.759,0,0,0,.517-1.2c.028-.075.051-.152.074-.227l0-.006c.017-.058.037-.123.058-.185a.386.386,0,0,0,.014-.061.4.4,0,0,1,.015-.065,4.038,4.038,0,0,0,.117-.473c.023-.113.047-.226.075-.335a1.581,1.581,0,0,0,.035-.224,1.687,1.687,0,0,1,.031-.209.263.263,0,0,0,.005-.065.267.267,0,0,1,0-.065,1.118,1.118,0,0,0,.019-.163,1.151,1.151,0,0,1,.019-.165v-.091a1.58,1.58,0,0,0,.019-.3V595.5a1.513,1.513,0,0,0,0-.365v-.164c0-.018,0-.036,0-.054V594.9q0-.032,0-.064v-.1a.309.309,0,0,1,0-.06.362.362,0,0,0-.006-.074,1.657,1.657,0,0,1-.028-.238,1.57,1.57,0,0,0-.03-.243.236.236,0,0,1,0-.058.218.218,0,0,0,0-.057c-.02-.084-.032-.171-.044-.255a2.536,2.536,0,0,0-.051-.285c-.016-.06-.03-.125-.042-.182-.016-.075-.032-.152-.055-.227s-.048-.161-.071-.242c-.06-.208-.116-.4-.187-.592a9.838,9.838,0,0,0-1.253-2.311c-.082-.115-.176-.223-.266-.327s-.159-.183-.231-.279c-.015-.015-.031-.03-.048-.044a1.083,1.083,0,0,0-.1-.111l-.04-.036-.008-.007a.9.9,0,0,0-.1-.106l0,0-.029-.028-.036-.038,0,0a.788.788,0,0,0-.1-.1.516.516,0,0,1-.072-.072.521.521,0,0,0-.072-.073c-.058-.045-.114-.094-.167-.143s-.112-.1-.172-.146c-.032-.024-.063-.053-.093-.08a1.262,1.262,0,0,0-.1-.084l-.111-.082c-.122-.09-.26-.193-.4-.289-.068-.048-.142-.092-.206-.131l-.019-.011-.09-.055a9.329,9.329,0,0,0-1.6-.79c-.159-.06-.327-.109-.489-.155-.117-.034-.247-.071-.372-.113a.227.227,0,0,0-.057-.011.279.279,0,0,1-.048-.008c-.051-.015-.108-.029-.163-.042l-.1-.026a.154.154,0,0,0-.037,0,.156.156,0,0,1-.039-.005,2.609,2.609,0,0,0-.309-.056c-.1-.013-.2-.027-.289-.05a.205.205,0,0,0-.047,0h-.033a.214.214,0,0,1-.05,0,1.316,1.316,0,0,0-.23-.025,1.423,1.423,0,0,1-.229-.024.159.159,0,0,0-.037,0h-.051a.191.191,0,0,1-.031,0,.261.261,0,0,0-.058,0l-.07,0-.074,0a.18.18,0,0,1-.071-.008h0l-.106,0-.117,0a.95.95,0,0,0-.145.009.566.566,0,0,1-.073,0h-.109a.394.394,0,0,0-.086.008h-.12a.617.617,0,0,1-.087.01.632.632,0,0,0-.081.009h-.076a1.347,1.347,0,0,1-.185.024,1.279,1.279,0,0,0-.184.024.245.245,0,0,1-.058,0,.238.238,0,0,0-.057,0,1.247,1.247,0,0,1-.137.022,1.232,1.232,0,0,0-.154.026c-.072.018-.147.032-.22.045a2.5,2.5,0,0,0-.278.061c-.066.02-.135.037-.2.053-.088.021-.177.043-.263.072l-.169.058-.006,0c-.133.045-.27.092-.4.141-.034.013-.067.024-.1.035a1.245,1.245,0,0,0-.139.052,11.534,11.534,0,0,0-1.329.685,8.984,8.984,0,0,0-3.658,4.491c-.058.155-.112.321-.163.482-.029.089-.057.177-.086.265a2.6,2.6,0,0,0-.076.311,2.856,2.856,0,0,1-.068.286.44.44,0,0,0-.016.1.477.477,0,0,1-.013.087,2.129,2.129,0,0,0-.046.273,2.5,2.5,0,0,1-.041.256.574.574,0,0,0-.01.088.513.513,0,0,1-.009.082v.067a.849.849,0,0,0-.014.138.893.893,0,0,1-.015.142v.121a.574.574,0,0,0,0,.135.6.6,0,0,1,0,.139,1.55,1.55,0,0,0,0,.365.608.608,0,0,1,0,.139.585.585,0,0,0,0,.136.506.506,0,0,1,0,.128.5.5,0,0,0,.005.128,1.651,1.651,0,0,1,.028.238,1.568,1.568,0,0,0,.03.243.233.233,0,0,1,0,.058.238.238,0,0,0,0,.058c.017.073.029.152.04.222a1.936,1.936,0,0,0,.057.283.252.252,0,0,1,.009.061.253.253,0,0,0,.01.064c.023.073.039.149.054.222a2.331,2.331,0,0,0,.06.24c.015.046.028.094.042.142s.028.1.045.152c.065.189.134.381.2.553.008.021.014.041.02.061a.588.588,0,0,0,.028.079c.029.064.059.134.082.191.037.089.076.18.118.267.137.274.323.632.536.973a9.052,9.052,0,0,0,3.4,3.148,9.649,9.649,0,0,0,1.191.519c.188.072.389.127.583.179l.225.062c.054.016.112.027.163.037a1.68,1.68,0,0,1,.172.04l.041,0,.04,0a2.185,2.185,0,0,0,.252.046c.073.01.153.022.227.039a.242.242,0,0,0,.061.005h.014a.175.175,0,0,1,.044,0,1.3,1.3,0,0,0,.2.025,1.379,1.379,0,0,1,.2.024.332.332,0,0,0,.074.006.3.3,0,0,1,.06,0,.3.3,0,0,0,.061.005h.064Zm.421-1.263a1.014,1.014,0,0,1-.173-.011h-.181a1.165,1.165,0,0,0-.21-.02,1.1,1.1,0,0,1-.207-.02h-.058a.684.684,0,0,0-.106-.013.718.718,0,0,1-.123-.015.92.92,0,0,0-.117-.019.993.993,0,0,1-.122-.02c-.084-.022-.172-.039-.258-.056a2.816,2.816,0,0,1-.369-.089.4.4,0,0,0-.065-.014.365.365,0,0,1-.069-.015l-.189-.061-.012,0a4.277,4.277,0,0,1-.44-.157,1.047,1.047,0,0,0-.11-.04.9.9,0,0,1-.125-.047c-.081-.04-.165-.078-.246-.115-.122-.055-.244-.111-.36-.174a8.644,8.644,0,0,1-.87-.549c-.112-.079-.218-.164-.321-.246-.072-.057-.14-.111-.21-.164a.9.9,0,0,1-.1-.094.918.918,0,0,0-.1-.094,1.287,1.287,0,0,1-.138-.124l-.049-.054a.528.528,0,0,1-.1-.1,1.455,1.455,0,0,0-.147-.159,1.446,1.446,0,0,1-.155-.168c-.028-.038-.061-.074-.089-.106s-.064-.073-.093-.111l-.115-.152,0,0c-.1-.138-.214-.282-.312-.431a8.813,8.813,0,0,1-.536-.949c-.054-.108-.1-.225-.143-.328-.028-.069-.056-.138-.086-.206a.261.261,0,0,1-.014-.047.271.271,0,0,0-.014-.05,3.979,3.979,0,0,1-.151-.445c-.025-.085-.051-.173-.08-.258a.1.1,0,0,1,0-.032.113.113,0,0,0,0-.031c-.022-.072-.039-.15-.056-.225-.011-.05-.025-.113-.04-.169a.346.346,0,0,1-.01-.065.377.377,0,0,0-.01-.065,2.155,2.155,0,0,1-.044-.278,2.442,2.442,0,0,0-.042-.272.564.564,0,0,1-.01-.1.535.535,0,0,0-.009-.095.447.447,0,0,1,0-.118.477.477,0,0,0,0-.118.557.557,0,0,1,0-.134.592.592,0,0,0-.005-.141.877.877,0,0,1,0-.284v-.221a.336.336,0,0,0,0-.076.41.41,0,0,1,.005-.093,1.165,1.165,0,0,0,.019-.177,1.077,1.077,0,0,1,.019-.174.508.508,0,0,0,.01-.1.51.51,0,0,1,.009-.1c.015-.062.025-.13.035-.195a2.076,2.076,0,0,1,.042-.224.388.388,0,0,0,.009-.057.374.374,0,0,1,.01-.063c.016-.056.03-.116.042-.168l0-.008c.016-.067.032-.136.051-.2s.032-.112.048-.167l.005-.019a3.19,3.19,0,0,1,.139-.426.406.406,0,0,0,.019-.062.4.4,0,0,1,.019-.063c.021-.049.041-.1.06-.151l0-.007h0c.027-.072.056-.147.09-.217.126-.257.274-.556.43-.838.018-.032.041-.065.06-.092s.032-.045.045-.068c.154-.245.316-.471.44-.64a1.071,1.071,0,0,1,.075-.089c.024-.027.048-.052.069-.079.044-.06.094-.115.142-.169s.093-.1.135-.16l.024-.023.052-.048a.821.821,0,0,1,.092-.1l.032-.032.027-.028,0,0a.873.873,0,0,1,.1-.093.449.449,0,0,0,.065-.065.461.461,0,0,1,.065-.065c.079-.06.155-.128.229-.194a3.283,3.283,0,0,1,.269-.224,8.965,8.965,0,0,1,.966-.636c.092-.05.182-.093.278-.139l.005,0c.061-.029.123-.058.185-.09.128-.064.267-.119.4-.173.085-.034.173-.069.259-.106a.063.063,0,0,1,.024-.005.076.076,0,0,0,.023,0c.039-.014.078-.027.119-.04l.005,0,.007,0,.1-.034c.091-.031.19-.058.286-.084.066-.018.142-.039.212-.06a.412.412,0,0,1,.077-.013.414.414,0,0,0,.081-.014,1.745,1.745,0,0,1,.247-.053c.061-.01.122-.02.179-.034a.2.2,0,0,1,.052,0,.2.2,0,0,0,.053-.005,1.134,1.134,0,0,1,.123-.019,1.167,1.167,0,0,0,.131-.02h.062a.649.649,0,0,1,.069-.009c.026,0,.051-.005.07-.009h.085a.31.31,0,0,1,.074-.005h.021a.335.335,0,0,0,.063,0,.842.842,0,0,1,.183-.016l.124,0,.084,0v7.477c0,.018,0,.039,0,.06a.505.505,0,0,0,.007.162h7.427l.061,0,.072,0a.3.3,0,0,1,.087.01c0,.029,0,.059,0,.091a1.57,1.57,0,0,1-.016.323v.111a.635.635,0,0,0-.009.078.635.635,0,0,1-.01.082v.072a1.217,1.217,0,0,0-.019.137,1.138,1.138,0,0,1-.019.137.213.213,0,0,0,0,.058.209.209,0,0,1-.005.057c-.016.062-.026.13-.037.195s-.023.141-.04.205a.844.844,0,0,0-.018.1.753.753,0,0,1-.021.109c-.015.053-.029.109-.043.164-.027.107-.055.215-.09.313-.016.045-.028.09-.039.133s-.022.084-.037.128l-.022.06a5.919,5.919,0,0,1-.227.561c-.018.037-.032.074-.046.109s-.03.078-.05.117c-.159.318-.3.57-.44.795s-.288.414-.437.607c-.061.08-.121.157-.179.235a1.383,1.383,0,0,1-.107.123,1.369,1.369,0,0,0-.108.123l-.072.067a1.063,1.063,0,0,1-.124.132l-.053.051-.054.055a2.384,2.384,0,0,1-.242.224.43.43,0,0,0-.052.05.406.406,0,0,1-.053.051c-.056.043-.109.088-.161.132s-.124.1-.188.152c-.231.17-.478.337-.755.51a6.874,6.874,0,0,1-.814.412l-.2.089c-.057.026-.119.048-.174.067s-.105.036-.156.059a1.024,1.024,0,0,1-.148.047c-.035.009-.07.018-.105.03-.118.041-.247.074-.371.106-.08.02-.167.043-.25.067a1.642,1.642,0,0,1-.21.042,1.828,1.828,0,0,0-.187.036.2.2,0,0,1-.05,0,.2.2,0,0,0-.05,0,1.645,1.645,0,0,1-.259.035,1.82,1.82,0,0,0-.253.033.292.292,0,0,1-.066.007l-.053,0h-.047a.288.288,0,0,0-.068.007.363.363,0,0,1-.074.006h-.12a.367.367,0,0,0-.079.007A.964.964,0,0,1,1193.977,603.027Zm5.876-10.363h-.009c-.113-.189-.221-.385-.326-.573-.021-.038-.046-.077-.07-.115s-.051-.081-.073-.121l-.023-.042c-.029-.052-.059-.106-.092-.159-.006-.01-.011-.021-.016-.031a.212.212,0,0,0-.037-.062c.006-.024.029-.033.052-.042l.025-.011a.518.518,0,0,0,.044-.03l.041-.028a.416.416,0,0,1,.048-.024.443.443,0,0,0,.049-.024c.1-.062.2-.122.306-.179s.205-.116.306-.178l.043-.028a.7.7,0,0,1,.2-.106.154.154,0,0,0,.026.047.235.235,0,0,1,.016.025l.019.035c.026.048.05.091.076.133.05.082.1.167.14.243l0,0c.04.072.082.147.126.219.028.046.054.093.079.139s.055.1.083.145a.455.455,0,0,1,.021.042.252.252,0,0,0,.041.069c-.009.023-.038.036-.064.047l-.022.01c-.068.038-.13.073-.191.111-.1.06-.2.122-.289.171s-.188.109-.28.166c-.033.02-.065.039-.1.057l-.085.049a.2.2,0,0,1-.027.013.107.107,0,0,0-.04.025Zm-2.1-2.586h0a.161.161,0,0,1-.054-.029l-.021-.014a.627.627,0,0,0-.062-.032.614.614,0,0,1-.067-.035l-.023-.017a.2.2,0,0,0-.03-.021c-.19-.106-.361-.2-.531-.308l-.1-.057-.006,0c-.038-.021-.075-.043-.111-.065a.287.287,0,0,0-.038-.018.155.155,0,0,1-.062-.038h-.005a.157.157,0,0,1,.026-.045l.013-.018c.018-.03.035-.061.052-.091l0-.008c.016-.029.032-.057.049-.084s.031-.058.044-.083.026-.054.042-.08c.043-.07.086-.143.128-.215s.074-.127.112-.189c.024-.039.045-.078.067-.117s.038-.068.057-.1a.213.213,0,0,0,.014-.029.088.088,0,0,1,.039-.053.53.53,0,0,0,.134.08c.029.014.054.026.076.039.056.034.113.068.17.1l.008,0,.007,0c.062.037.124.073.184.111.026.016.054.03.08.043s.056.028.082.044.079.047.119.069.087.049.13.076l.03.02a.23.23,0,0,0,.076.042.154.154,0,0,1-.036.074.275.275,0,0,0-.022.032l-.006.01c-.031.055-.059.107-.091.158-.076.126-.148.257-.217.384l-.005.01-.093.17-.054.094c-.024.04-.047.081-.07.123a.214.214,0,0,1-.014.02.13.13,0,0,0-.024.041Z" transform="translate(-1183.8 -585.045)"/>
</svg>
