<svg xmlns="http://www.w3.org/2000/svg" width="120" height="30" viewBox="0 0 123.464 34.009">
  <g id="Group_7" data-name="Group 7" transform="translate(-898.268 -967)">
    <path id="Фигура_1_копия" data-name="Фигура 1 копия" d="M960,1001V967c29.278,0,43.5,33.973,60,34,4.619.008-.507.01-9.4.01C992.824,1001.009,960,1001,960,1001Zm-60,0c16.5-.026,30.721-34,60-34v34s-32.824.01-50.6.01C900.507,1001.009,895.381,1001.006,900,1001Z" fill="#f6f6f6"/>
    <path id="Arrow_07_-_www.Shapes4FREE.com1" data-name="Arrow 07 - www.Shapes4FREE.com1" d="M970.4,985.722a1.74,1.74,0,0,1-.522,1.245l-8.549,8.416a1.78,1.78,0,0,1-2.493,0l-8.549-8.416a1.743,1.743,0,0,1-.009-2.48,1.78,1.78,0,0,1,2.5-.009l7.3,7.189,7.3-7.189a1.78,1.78,0,0,1,2.5.009A1.739,1.739,0,0,1,970.4,985.722Z" fill="#e18848"/>
  </g>
</svg>
