<svg xmlns="http://www.w3.org/2000/svg" xmlns:xlink="http://www.w3.org/1999/xlink" width="62.783" height="30.725" viewBox="0 0 62.783 30.725">
  <defs>
    <linearGradient id="linear-gradient" x1="-0.035" y1="0.5" x2="1.035" y2="0.5" gradientUnits="objectBoundingBox">
      <stop offset="0" stop-color="#f0b866"/>
      <stop offset="1" stop-color="#db7439"/>
    </linearGradient>
  </defs>
  <path id="new_vector_shape_done" d="M1045.585,333.14h-43.312a2.182,2.182,0,0,1-.7-.337c-.469-.343-.455-1.165-.44-1.959v-.008c0-.134,0-.273,0-.407v-6.158a1.016,1.016,0,0,0-.3-.032c-.074,0-.151,0-.225.006s-.135.005-.2.005h-6.467a.4.4,0,0,0-.167-.039.577.577,0,0,1-.138-.025,1.467,1.467,0,0,1-.609-.42,1.312,1.312,0,0,1-.23-1.2,1.4,1.4,0,0,1,.882-.906,1.358,1.358,0,0,1,.41-.047l.188,0,.186,0h6.642a1.394,1.394,0,0,0,.025-.435v-.006c0-.052,0-.1,0-.148v-1.219a.391.391,0,0,0,.053-.163.6.6,0,0,1,.034-.132,1.445,1.445,0,0,1,.5-.609,1.371,1.371,0,0,1,.749-.223,1.477,1.477,0,0,1,1.319.833,2.01,2.01,0,0,1,.089.8c0,.055,0,.111,0,.166V328.6h.043a1.092,1.092,0,0,1,.2-.2c.036-.031.074-.063.108-.1l.246-.237.078-.075.33-.318c.311-.3.625-.609.929-.907l.01-.01c.3-.3.646-.634.977-.954l5.967-5.78,1.166-1.126,1.141-1.1.281-.271.329-.318a.694.694,0,0,1,.085-.066.316.316,0,0,0,.154-.186,1.8,1.8,0,0,1-.367-.307,2.336,2.336,0,0,0-.265-.24c-.275-.2-.532-.429-.781-.649s-.51-.452-.787-.653a1.216,1.216,0,0,1-.174-.168,1.213,1.213,0,0,0-.174-.168,18.147,18.147,0,0,1-1.448-1.219,18.165,18.165,0,0,0-1.448-1.219,5.4,5.4,0,0,1-.465-.4,5.485,5.485,0,0,0-.471-.4,6.475,6.475,0,0,1-.574-.491,6.578,6.578,0,0,0-.581-.5,1.131,1.131,0,0,1-.164-.158,1.148,1.148,0,0,0-.162-.157c-.212-.154-.41-.328-.6-.5s-.386-.338-.6-.492a2.114,2.114,0,0,1-.26-.241,2.1,2.1,0,0,0-.262-.242c-.276-.2-.533-.429-.782-.65s-.508-.451-.786-.653a3.166,3.166,0,0,1-.319-.295,2.006,2.006,0,0,0-.574-.462v5.254l-.044.18-.043.177a1.5,1.5,0,0,1-.479.609,1.343,1.343,0,0,1-.766.238,1.442,1.442,0,0,1-1.324-.826,4.846,4.846,0,0,1-.1-1.612c.007-.191.013-.372.013-.532V304.2c0-.055,0-.111,0-.166a2.024,2.024,0,0,1,.089-.8,1.488,1.488,0,0,1,.632-.672.884.884,0,0,1,.195-.06.683.683,0,0,0,.241-.086h43.313a2.2,2.2,0,0,1,.7.336c.436.319.436.92.436,1.681v26.733c0,.073,0,.149,0,.225v.019a2.308,2.308,0,0,1-.091.912,1.5,1.5,0,0,1-1.067.82Zm-27.655-14.417h0a2.56,2.56,0,0,1-.641.7c-.1.085-.19.163-.274.244l-.037.036-.017.016-1.862,1.8-6.381,6.179-2.047,1.976c-.046.045-.121.11-.208.186a3.015,3.015,0,0,0-.62.634h36.192v-.042l-2.822-2.717-.218-.209-5.867-5.648-.952-.919-.218-.21-1.138-1.1-.062-.059-.527-.508a.784.784,0,0,1-.065-.076.33.33,0,0,0-.217-.155,1.156,1.156,0,0,1-.309.264c-.037.025-.072.048-.1.072-.177.128-.346.276-.509.418s-.335.292-.514.422a3.41,3.41,0,0,0-.34.3,3.5,3.5,0,0,1-.335.292c-.408.3-.8.625-1.173.943s-.77.651-1.179.948c-.071.051-.156.127-.254.214a2.132,2.132,0,0,1-1.215.682.723.723,0,0,1-.143-.014,2.532,2.532,0,0,1-1.367-.8,5.124,5.124,0,0,0-.527-.459,13.921,13.921,0,0,1-1.073-.9,13.84,13.84,0,0,0-1.082-.907,2.126,2.126,0,0,1-.261-.242,2.136,2.136,0,0,0-.261-.242,5.548,5.548,0,0,1-.482-.412,5.47,5.47,0,0,0-.476-.408l-.076-.054a1.026,1.026,0,0,1-.272-.24h-.066ZM1040.1,307.46a1.462,1.462,0,0,1,1.106.462,1.406,1.406,0,0,1,.13,1.534,2.414,2.414,0,0,1-.653.6l-.065.047c-.175.127-.342.273-.5.414s-.339.3-.521.427a3.455,3.455,0,0,0-.335.292,3.469,3.469,0,0,1-.34.3c-.635.461-1.239.976-1.823,1.474s-1.183,1.01-1.813,1.468a6.432,6.432,0,0,0-.554.472,6.439,6.439,0,0,1-.556.474c-.254.184-.491.391-.721.59s-.468.406-.717.587l-.079.056-.011.008c-.188.13-.5.348-.541.483l3.712,3.573.9.863,4.189,4.033c.368.355.74.719,1.1,1.071l.029.029c.35.343.712.7,1.071,1.044.046.044.111.113.2.206a3.266,3.266,0,0,0,.695.634V305.063h-37.847v.021a3.156,3.156,0,0,1,.519.445,3.806,3.806,0,0,0,.418.375c.342.249.661.534.969.809s.627.56.969.809a2.1,2.1,0,0,1,.262.242,2.117,2.117,0,0,0,.261.241,5.459,5.459,0,0,1,.483.414,5.419,5.419,0,0,0,.474.406,5.463,5.463,0,0,1,.485.414,5.454,5.454,0,0,0,.474.405,17.063,17.063,0,0,1,1.348,1.133,16.981,16.981,0,0,0,1.352,1.137,1.219,1.219,0,0,1,.174.168,1.219,1.219,0,0,0,.175.169c.172.125.333.264.489.4s.318.274.491.4a1.214,1.214,0,0,1,.174.168,1.22,1.22,0,0,0,.175.169c.207.151.4.32.588.483s.381.333.588.483a1.216,1.216,0,0,1,.174.168,1.218,1.218,0,0,0,.174.168c.31.226.6.484.88.734s.572.51.884.737a2.2,2.2,0,0,1,.271.251,2.186,2.186,0,0,0,.274.254,18.123,18.123,0,0,1,1.447,1.218,18.146,18.146,0,0,0,1.448,1.219,5.339,5.339,0,0,1,.467.4,5.466,5.466,0,0,0,.47.4,1.233,1.233,0,0,1,.169.16.8.8,0,0,0,.31.239,1.8,1.8,0,0,1,.42-.355c.046-.032.087-.06.125-.087.168-.122.329-.261.485-.395s.322-.278.5-.4a2.514,2.514,0,0,0,.272-.241,2.526,2.526,0,0,1,.273-.242c.434-.315.846-.663,1.244-1s.808-.684,1.238-1a.908.908,0,0,0,.131-.126.908.908,0,0,1,.13-.126c.2-.147.4-.306.585-.46l.005,0h0c.188-.154.383-.313.586-.461a1.727,1.727,0,0,0,.208-.19,1.737,1.737,0,0,1,.206-.189c.681-.495,1.33-1.049,1.957-1.585s1.279-1.093,1.962-1.589c.173-.125.338-.268.5-.406s.329-.285.5-.413a8.406,8.406,0,0,0,.695-.587,8.39,8.39,0,0,1,.7-.59c.337-.244.658-.515.968-.777s.632-.534.97-.779a3.688,3.688,0,0,0,.336-.289,2.445,2.445,0,0,1,.557-.426A1.276,1.276,0,0,1,1040.1,307.46Zm-53.913,22.365a3.879,3.879,0,0,1-1.577-.215,1.35,1.35,0,0,1-.6-.9,1.292,1.292,0,0,1,.231-1.037,1.5,1.5,0,0,1,.566-.42.648.648,0,0,1,.125-.033.429.429,0,0,0,.158-.052H995.61a1.423,1.423,0,0,1,.914.694,1.116,1.116,0,0,1,.174.778,1.419,1.419,0,0,1-1.045,1.135l-.35.01-.346.01h-7.3c-.182,0-.4.006-.627.012C986.76,329.817,986.476,329.825,986.189,329.825Zm-.573-12.421a2.384,2.384,0,0,1-.7-.067,1.377,1.377,0,0,1-.893-.988,1.029,1.029,0,0,1-.044-.5,2.108,2.108,0,0,1,.327-.652,1.541,1.541,0,0,1,.719-.42.241.241,0,0,1,.07-.009h.054a.148.148,0,0,0,.071-.013h22.6c.71,0,1.2.034,1.548.485a1.158,1.158,0,0,1,.327.946,1.42,1.42,0,0,1-.718,1.072,2.311,2.311,0,0,1-.934.137c-.127,0-.258,0-.384-.006h-.005c-.124,0-.24-.005-.354-.005H986.659c-.116,0-.267.005-.427.011C986.039,317.4,985.82,317.4,985.616,317.4Zm2.158-7.246a1.387,1.387,0,0,1-.439-.051,1.547,1.547,0,0,1-.931-.96,1.168,1.168,0,0,1,.191-1.078,1.546,1.546,0,0,1,.653-.483.706.706,0,0,1,.166-.032.514.514,0,0,0,.2-.051h9.037l.412,0h.017l.332,0c.921,0,1.551.06,1.9.866a1.241,1.241,0,0,1,.087.757,1.437,1.437,0,0,1-.937.987,1.457,1.457,0,0,1-.429.049c-.066,0-.133,0-.2,0h-.005c-.066,0-.131,0-.193,0h-9.408c-.07,0-.144,0-.219,0S987.851,310.158,987.774,310.158Z" transform="translate(-983.963 -302.415)" fill="url(#linear-gradient)"/>
</svg>
