<svg xmlns="http://www.w3.org/2000/svg" width="19.116" height="23.142" viewBox="0 0 19.116 23.142">
  <path id="new_vector_shape_done" d="M995.242,605.578a.409.409,0,0,1,.068.048c.079.055.164.092.24.145.039.027.077.033.116.061.136.1.288.171.424.266.1.068.2.1.3.169.331.232.693.4,1.024.629.039.027.077.033.116.061.156.109.328.193.484.3.039.027.077.033.116.06.156.109.328.194.484.3.039.027.077.033.116.061.117.082.247.148.364.23.039.027.077.033.116.061.1.068.207.125.3.193.019.013.037.011.056.024.1.067.2.112.3.182.311.218.652.375.964.593.1.068.2.1.3.17.39.272.815.466,1.2.738.1.069.2.115.3.181.019.013.037.011.056.024.389.272.814.466,1.2.738.1.068.2.1.3.169.292.2.612.352.9.556.078.055.158.079.236.133.234.163.49.284.724.448.058.041.117.056.176.1.175.122.369.216.544.339.058.041.117.056.175.1.156.109.328.194.484.3.039.027.077.033.116.061.117.082.247.148.364.23.039.027.077.033.116.06.1.068.207.126.3.194.019.013.037.011.056.024.37.259.774.443,1.144.7.039.027.077.033.116.06.175.122.369.216.544.339.039.027.077.033.116.06.156.109.328.194.484.3.039.027.077.033.116.06.117.082.247.148.364.23.039.027.077.033.116.061.1.068.207.126.3.194.019.013.037.011.056.024.1.067.2.112.3.181.331.232.693.4,1.024.629.078.054.158.079.236.133.234.163.49.284.724.448.08.055.164.092.24.145.028.02.079.023.094.06a.287.287,0,0,0-.1.06c-.04.029-.083.047-.12.073-.019.013-.037.011-.056.024-.1.068-.207.125-.3.193-.078.055-.158.079-.236.133-.292.2-.612.353-.9.557-.039.027-.077.033-.115.06-.175.122-.369.216-.544.339-.039.027-.077.033-.116.06-.175.123-.369.216-.544.339-.039.027-.077.033-.116.06-.117.082-.247.148-.364.23-.039.027-.077.033-.116.06-.1.068-.207.126-.3.193-.039.027-.077.033-.116.061-.1.067-.2.112-.3.181-.331.231-.693.4-1.024.629-.078.055-.158.079-.235.133-.253.177-.531.307-.784.484-.078.054-.158.079-.236.133-.253.177-.531.307-.784.484-.078.054-.158.078-.235.133-.214.15-.45.262-.664.411-.058.041-.117.056-.176.1-.175.123-.369.216-.544.339-.039.027-.077.033-.116.06-.117.082-.247.148-.364.23-.039.027-.077.033-.116.06-.1.068-.207.126-.3.194-.039.027-.077.033-.116.06-.1.067-.2.112-.3.182-.331.231-.693.4-1.024.629-.1.068-.2.1-.3.169-.331.231-.693.4-1.024.629-.1.068-.2.1-.3.169-.156.109-.328.194-.484.3-.039.027-.077.033-.116.06-.117.082-.247.148-.364.23-.039.027-.077.033-.116.061-.1.068-.207.126-.3.193-.019.013-.037.011-.056.024-.1.067-.2.112-.3.182-.331.231-.693.4-1.024.629-.039.027-.077.033-.115.06-.156.109-.328.194-.484.3-.039.027-.077.033-.116.06-.389.272-.815.466-1.2.738-.1.068-.2.1-.3.169-.175.122-.369.216-.544.339-.039.027-.077.033-.116.06-.1.067-.2.113-.3.181a1.4,1.4,0,0,1-.188.121v-9h.009c.04-.035.139-.018.193-.036.151-.05.324-.047.476-.1l.1-.012c.089-.029.194-.032.283-.06l.1-.012c.068-.022.151-.026.219-.048l.1-.012c.081-.027.172-.02.257-.048.235-.078.5-.068.732-.145.1-.034.22-.027.321-.06l.1-.012c.081-.027.172-.02.257-.049s.172-.02.257-.048c.235-.078.5-.068.733-.145.1-.034.22-.027.321-.06h.039c.081-.027.172-.02.257-.048.235-.078.5-.068.733-.145.1-.032.2-.016.3-.048.235-.078.5-.068.732-.145.079-.026.152-.01.231-.036.193-.064.411-.058.6-.121.058-.019.109-.005.167-.024.151-.05.324-.047.476-.1.058-.019.109-.005.167-.024.109-.036.237-.037.347-.073l.1-.012c.089-.029.194-.031.283-.06l.1-.012c.068-.022.151-.026.219-.048l.1-.012c.081-.027.172-.02.257-.048.235-.078.5-.068.733-.145l.1-.012c.11-.036.237-.037.347-.073l.1-.012c.11-.036.237-.037.347-.073l.1-.012c.068-.022.151-.026.218-.048l.1-.012c.081-.027.172-.02.257-.048.06-.02.127-.015.193-.036.235-.078.5-.068.733-.145l.1-.012c.151-.05.324-.047.476-.1.058-.019.114-.012.167-.03.021-.007.045,0,.056-.018h-.03c-.017-.015-.04,0-.064-.012-.06-.02-.127-.015-.193-.036-.193-.064-.411-.058-.6-.121-.058-.019-.109,0-.167-.024-.11-.036-.237-.037-.347-.073l-.1-.012c-.089-.029-.194-.032-.283-.061l-.1-.012c-.067-.022-.151-.026-.218-.048l-.1-.012c-.081-.027-.172-.02-.257-.049-.235-.078-.5-.068-.733-.145l-.1-.012c-.131-.043-.281-.042-.411-.085l-.1-.012c-.089-.029-.194-.032-.283-.06l-.1-.012c-.068-.022-.151-.026-.218-.048l-.1-.012c-.081-.027-.172-.02-.257-.049-.06-.02-.127-.015-.193-.036-.214-.071-.454-.063-.668-.133l-.1-.012c-.089-.029-.194-.032-.283-.06l-.1-.012c-.068-.022-.151-.026-.218-.048l-.1-.012c-.081-.027-.172-.02-.257-.048-.06-.02-.127-.015-.193-.036-.214-.071-.454-.063-.668-.133-.1-.034-.22-.027-.321-.061h-.039c-.081-.027-.172-.02-.257-.048-.06-.02-.127-.015-.193-.036-.193-.064-.411-.058-.6-.121-.1-.032-.2-.016-.3-.048-.06-.02-.127-.015-.193-.036-.193-.064-.411-.058-.6-.121-.079-.026-.152-.01-.231-.036-.193-.064-.411-.058-.6-.121-.058-.019-.109,0-.167-.024-.151-.05-.324-.047-.475-.1-.058-.019-.109,0-.167-.024-.11-.036-.237-.037-.347-.073l-.1-.012c-.089-.029-.194-.031-.283-.06l-.1-.012c-.081-.027-.172-.02-.257-.048-.06-.02-.127-.015-.193-.036-.2-.065-.414-.063-.613-.121Z" transform="translate(-995.242 -605.578)" fill="#fff"/>
</svg>
