<svg xmlns="http://www.w3.org/2000/svg" xmlns:xlink="http://www.w3.org/1999/xlink" width="180.001" height="67" viewBox="0 0 180.001 67">
  <defs>
    <linearGradient id="linear-gradient" x1="-0.035" y1="0.5" x2="1.035" y2="0.5" gradientUnits="objectBoundingBox">
      <stop offset="0" stop-color="#f0b866"/>
      <stop offset="1" stop-color="#db7439"/>
    </linearGradient>
  </defs>
  <g id="Векторный_смарт-объект" data-name="Векторный смарт-объект" transform="translate(-354 -58)">
    <g id="Векторный_смарт-объект-2" data-name="Векторный смарт-объект" transform="translate(282.857 16.85)">
      <g id="Group_1" data-name="Group 1">
        <rect id="Rectangle_1" data-name="Rectangle 1" width="135.474" height="2.978" transform="translate(93.175 75.177)" fill="#14100d"/>
        <rect id="Rectangle_2" data-name="Rectangle 2" width="135.474" height="6.465" transform="translate(93.175 54.628)" fill="#14100d"/>
        <rect id="Rectangle_3" data-name="Rectangle 3" width="1.92" height="11.216" transform="translate(117.79 78.957)" fill="#14100d"/>
        <rect id="Rectangle_4" data-name="Rectangle 4" width="1.92" height="11.216" transform="translate(145.898 78.957)" fill="#14100d"/>
        <rect id="Rectangle_5" data-name="Rectangle 5" width="1.92" height="11.216" transform="translate(174.005 78.957)" fill="#14100d"/>
        <rect id="Rectangle_6" data-name="Rectangle 6" width="1.92" height="11.216" transform="translate(202.113 78.957)" fill="#14100d"/>
        <rect id="Rectangle_7" data-name="Rectangle 7" width="4.19" height="37.19" transform="translate(88.041 52.983)" fill="#14100d"/>
        <rect id="Rectangle_8" data-name="Rectangle 8" width="4.19" height="37.19" transform="translate(229.66 52.983)" fill="#14100d"/>
        <rect id="Rectangle_9" data-name="Rectangle 9" width="2.654" height="6.21" transform="translate(93.175 61.643)" fill="#14100d"/>
        <rect id="Rectangle_10" data-name="Rectangle 10" width="2.654" height="6.21" transform="translate(93.175 68.516)" fill="#14100d"/>
        <rect id="Rectangle_11" data-name="Rectangle 11" width="2.654" height="6.21" transform="translate(96.403 61.643)" fill="#14100d"/>
        <rect id="Rectangle_12" data-name="Rectangle 12" width="2.654" height="6.21" transform="translate(96.403 68.516)" fill="#14100d"/>
        <rect id="Rectangle_13" data-name="Rectangle 13" width="2.654" height="6.21" transform="translate(99.631 61.643)" fill="#14100d"/>
        <rect id="Rectangle_14" data-name="Rectangle 14" width="2.654" height="6.21" transform="translate(99.631 68.516)" fill="#14100d"/>
        <rect id="Rectangle_15" data-name="Rectangle 15" width="2.654" height="6.21" transform="translate(102.859 61.643)" fill="#14100d"/>
        <rect id="Rectangle_16" data-name="Rectangle 16" width="2.654" height="6.21" transform="translate(102.859 68.516)" fill="#14100d"/>
        <rect id="Rectangle_17" data-name="Rectangle 17" width="2.654" height="6.21" transform="translate(106.087 61.643)" fill="#14100d"/>
        <rect id="Rectangle_18" data-name="Rectangle 18" width="2.654" height="6.21" transform="translate(106.087 68.516)" fill="#14100d"/>
        <rect id="Rectangle_19" data-name="Rectangle 19" width="2.654" height="6.21" transform="translate(109.316 61.643)" fill="#14100d"/>
        <rect id="Rectangle_20" data-name="Rectangle 20" width="2.654" height="6.21" transform="translate(109.316 68.516)" fill="#14100d"/>
        <rect id="Rectangle_21" data-name="Rectangle 21" width="2.654" height="6.21" transform="translate(112.544 61.643)" fill="#14100d"/>
        <rect id="Rectangle_22" data-name="Rectangle 22" width="2.654" height="6.21" transform="translate(112.544 68.516)" fill="#14100d"/>
        <rect id="Rectangle_23" data-name="Rectangle 23" width="2.654" height="6.21" transform="translate(115.772 61.643)" fill="#14100d"/>
        <rect id="Rectangle_24" data-name="Rectangle 24" width="2.654" height="6.21" transform="translate(115.772 68.516)" fill="#14100d"/>
        <rect id="Rectangle_25" data-name="Rectangle 25" width="2.654" height="6.21" transform="translate(119 61.643)" fill="#14100d"/>
        <rect id="Rectangle_26" data-name="Rectangle 26" width="2.654" height="6.21" transform="translate(119 68.516)" fill="#14100d"/>
        <rect id="Rectangle_27" data-name="Rectangle 27" width="2.654" height="6.21" transform="translate(122.228 61.643)" fill="#14100d"/>
        <rect id="Rectangle_28" data-name="Rectangle 28" width="2.654" height="6.21" transform="translate(122.228 68.516)" fill="#14100d"/>
        <rect id="Rectangle_29" data-name="Rectangle 29" width="2.654" height="6.21" transform="translate(125.456 61.643)" fill="#14100d"/>
        <rect id="Rectangle_30" data-name="Rectangle 30" width="2.654" height="6.21" transform="translate(125.456 68.516)" fill="#14100d"/>
        <rect id="Rectangle_31" data-name="Rectangle 31" width="2.654" height="6.21" transform="translate(128.684 61.643)" fill="#14100d"/>
        <rect id="Rectangle_32" data-name="Rectangle 32" width="2.654" height="6.21" transform="translate(128.684 68.516)" fill="#14100d"/>
        <rect id="Rectangle_33" data-name="Rectangle 33" width="2.654" height="6.21" transform="translate(131.913 61.643)" fill="#14100d"/>
        <rect id="Rectangle_34" data-name="Rectangle 34" width="2.654" height="6.21" transform="translate(131.913 68.516)" fill="#14100d"/>
        <rect id="Rectangle_35" data-name="Rectangle 35" width="2.654" height="6.21" transform="translate(135.141 61.643)" fill="#14100d"/>
        <rect id="Rectangle_36" data-name="Rectangle 36" width="2.654" height="6.21" transform="translate(135.141 68.516)" fill="#14100d"/>
        <rect id="Rectangle_37" data-name="Rectangle 37" width="2.654" height="6.21" transform="translate(138.369 61.643)" fill="#14100d"/>
        <rect id="Rectangle_38" data-name="Rectangle 38" width="2.654" height="6.21" transform="translate(138.369 68.516)" fill="#14100d"/>
        <rect id="Rectangle_39" data-name="Rectangle 39" width="2.654" height="6.21" transform="translate(141.597 61.643)" fill="#14100d"/>
        <rect id="Rectangle_40" data-name="Rectangle 40" width="2.654" height="6.21" transform="translate(141.597 68.516)" fill="#14100d"/>
        <rect id="Rectangle_41" data-name="Rectangle 41" width="2.654" height="6.21" transform="translate(144.825 61.643)" fill="#14100d"/>
        <rect id="Rectangle_42" data-name="Rectangle 42" width="2.654" height="6.21" transform="translate(144.825 68.516)" fill="#14100d"/>
        <rect id="Rectangle_43" data-name="Rectangle 43" width="2.654" height="6.21" transform="translate(148.053 61.643)" fill="#14100d"/>
        <rect id="Rectangle_44" data-name="Rectangle 44" width="2.654" height="6.21" transform="translate(148.053 68.516)" fill="#14100d"/>
        <rect id="Rectangle_45" data-name="Rectangle 45" width="2.654" height="6.21" transform="translate(151.281 61.643)" fill="#14100d"/>
        <rect id="Rectangle_46" data-name="Rectangle 46" width="2.654" height="6.21" transform="translate(151.281 68.516)" fill="#14100d"/>
        <rect id="Rectangle_47" data-name="Rectangle 47" width="2.654" height="6.21" transform="translate(154.51 61.643)" fill="#14100d"/>
        <rect id="Rectangle_48" data-name="Rectangle 48" width="2.654" height="6.21" transform="translate(154.51 68.516)" fill="#14100d"/>
        <rect id="Rectangle_49" data-name="Rectangle 49" width="2.654" height="6.21" transform="translate(157.738 61.643)" fill="#14100d"/>
        <rect id="Rectangle_50" data-name="Rectangle 50" width="2.654" height="6.21" transform="translate(157.738 68.516)" fill="#14100d"/>
        <rect id="Rectangle_51" data-name="Rectangle 51" width="2.654" height="6.21" transform="translate(160.966 61.643)" fill="#14100d"/>
        <rect id="Rectangle_52" data-name="Rectangle 52" width="2.654" height="6.21" transform="translate(160.966 68.516)" fill="#14100d"/>
        <rect id="Rectangle_53" data-name="Rectangle 53" width="2.654" height="6.21" transform="translate(164.194 61.643)" fill="#14100d"/>
        <rect id="Rectangle_54" data-name="Rectangle 54" width="2.654" height="6.21" transform="translate(164.194 68.516)" fill="#14100d"/>
        <rect id="Rectangle_55" data-name="Rectangle 55" width="2.654" height="6.21" transform="translate(167.422 61.643)" fill="#14100d"/>
        <rect id="Rectangle_56" data-name="Rectangle 56" width="2.654" height="6.21" transform="translate(167.422 68.516)" fill="#14100d"/>
        <rect id="Rectangle_57" data-name="Rectangle 57" width="2.654" height="6.21" transform="translate(170.65 61.643)" fill="#14100d"/>
        <rect id="Rectangle_58" data-name="Rectangle 58" width="2.654" height="6.21" transform="translate(170.65 68.516)" fill="#14100d"/>
        <rect id="Rectangle_59" data-name="Rectangle 59" width="2.654" height="6.21" transform="translate(173.878 61.643)" fill="#14100d"/>
        <rect id="Rectangle_60" data-name="Rectangle 60" width="2.654" height="6.21" transform="translate(173.878 68.516)" fill="#14100d"/>
        <rect id="Rectangle_61" data-name="Rectangle 61" width="2.654" height="6.21" transform="translate(177.107 61.643)" fill="#14100d"/>
        <rect id="Rectangle_62" data-name="Rectangle 62" width="2.654" height="6.21" transform="translate(177.107 68.516)" fill="#14100d"/>
        <rect id="Rectangle_63" data-name="Rectangle 63" width="2.654" height="6.21" transform="translate(180.335 61.643)" fill="#14100d"/>
        <rect id="Rectangle_64" data-name="Rectangle 64" width="2.654" height="6.21" transform="translate(180.335 68.516)" fill="#14100d"/>
        <rect id="Rectangle_65" data-name="Rectangle 65" width="2.654" height="6.21" transform="translate(183.563 61.643)" fill="#14100d"/>
        <rect id="Rectangle_66" data-name="Rectangle 66" width="2.654" height="6.21" transform="translate(183.563 68.516)" fill="#14100d"/>
        <rect id="Rectangle_67" data-name="Rectangle 67" width="2.654" height="6.21" transform="translate(186.791 61.643)" fill="#14100d"/>
        <rect id="Rectangle_68" data-name="Rectangle 68" width="2.654" height="6.21" transform="translate(186.791 68.516)" fill="#14100d"/>
        <rect id="Rectangle_69" data-name="Rectangle 69" width="2.654" height="6.21" transform="translate(190.019 61.643)" fill="#14100d"/>
        <rect id="Rectangle_70" data-name="Rectangle 70" width="2.654" height="6.21" transform="translate(190.019 68.516)" fill="#14100d"/>
        <rect id="Rectangle_71" data-name="Rectangle 71" width="2.654" height="6.21" transform="translate(193.247 61.643)" fill="#14100d"/>
        <rect id="Rectangle_72" data-name="Rectangle 72" width="2.654" height="6.21" transform="translate(193.247 68.516)" fill="#14100d"/>
        <rect id="Rectangle_73" data-name="Rectangle 73" width="2.654" height="6.21" transform="translate(196.476 61.643)" fill="#14100d"/>
        <rect id="Rectangle_74" data-name="Rectangle 74" width="2.654" height="6.21" transform="translate(196.476 68.516)" fill="#14100d"/>
        <rect id="Rectangle_75" data-name="Rectangle 75" width="2.654" height="6.21" transform="translate(199.704 61.643)" fill="#14100d"/>
        <rect id="Rectangle_76" data-name="Rectangle 76" width="2.654" height="6.21" transform="translate(199.704 68.516)" fill="#14100d"/>
        <rect id="Rectangle_77" data-name="Rectangle 77" width="2.654" height="6.21" transform="translate(202.932 61.643)" fill="#14100d"/>
        <rect id="Rectangle_78" data-name="Rectangle 78" width="2.654" height="6.21" transform="translate(202.932 68.516)" fill="#14100d"/>
        <rect id="Rectangle_79" data-name="Rectangle 79" width="2.654" height="6.21" transform="translate(206.16 61.643)" fill="#14100d"/>
        <rect id="Rectangle_80" data-name="Rectangle 80" width="2.654" height="6.21" transform="translate(206.16 68.516)" fill="#14100d"/>
        <rect id="Rectangle_81" data-name="Rectangle 81" width="2.654" height="6.21" transform="translate(209.388 61.643)" fill="#14100d"/>
        <rect id="Rectangle_82" data-name="Rectangle 82" width="2.654" height="6.21" transform="translate(209.388 68.516)" fill="#14100d"/>
        <rect id="Rectangle_83" data-name="Rectangle 83" width="2.654" height="6.21" transform="translate(212.616 61.643)" fill="#14100d"/>
        <rect id="Rectangle_84" data-name="Rectangle 84" width="2.654" height="6.21" transform="translate(212.616 68.516)" fill="#14100d"/>
        <rect id="Rectangle_85" data-name="Rectangle 85" width="2.654" height="6.21" transform="translate(215.844 61.643)" fill="#14100d"/>
        <rect id="Rectangle_86" data-name="Rectangle 86" width="2.654" height="6.21" transform="translate(215.844 68.516)" fill="#14100d"/>
        <rect id="Rectangle_87" data-name="Rectangle 87" width="2.654" height="6.21" transform="translate(219.073 61.643)" fill="#14100d"/>
        <rect id="Rectangle_88" data-name="Rectangle 88" width="2.654" height="6.21" transform="translate(219.073 68.516)" fill="#14100d"/>
        <rect id="Rectangle_89" data-name="Rectangle 89" width="2.654" height="6.21" transform="translate(222.301 61.643)" fill="#14100d"/>
        <rect id="Rectangle_90" data-name="Rectangle 90" width="2.654" height="6.21" transform="translate(222.301 68.516)" fill="#14100d"/>
        <rect id="Rectangle_91" data-name="Rectangle 91" width="2.654" height="6.21" transform="translate(225.529 61.643)" fill="#14100d"/>
        <rect id="Rectangle_92" data-name="Rectangle 92" width="2.654" height="6.21" transform="translate(225.529 68.516)" fill="#14100d"/>
        <rect id="Rectangle_93" data-name="Rectangle 93" width="38.757" height="8.695" transform="translate(141.533 44.947)" fill="#14100d"/>
        <rect id="Rectangle_94" data-name="Rectangle 94" width="10.259" height="3.14" transform="translate(155.782 41.15)" fill="#14100d"/>
        <path id="Path_1" data-name="Path 1" d="M86.842,91.455h148.6l.55.584H86.292Z" fill="#14100d" fill-rule="evenodd"/>
        <path id="Path_2" data-name="Path 2" d="M85.76,92.606H236.526l.55.584H85.21Z" fill="#14100d" fill-rule="evenodd"/>
        <path id="Path_3" data-name="Path 3" d="M84.678,93.756H237.608l.55.584H84.128Z" fill="#14100d" fill-rule="evenodd"/>
        <path id="Path_4" data-name="Path 4" d="M83.6,94.907H238.69l.55.584H83.046Z" fill="#14100d" fill-rule="evenodd"/>
        <path id="Path_5" data-name="Path 5" d="M82.514,96.058H239.772l.55.584H81.964Z" fill="#14100d" fill-rule="evenodd"/>
        <path id="Path_6" data-name="Path 6" d="M81.431,97.209H240.855l.55.585H80.882Z" fill="#14100d" fill-rule="evenodd"/>
        <path id="Path_7" data-name="Path 7" d="M80.349,98.359H241.937l.55.584H79.8Z" fill="#14100d" fill-rule="evenodd"/>
        <path id="Path_8" data-name="Path 8" d="M79.267,99.51H243.019l.55.584H78.718Z" fill="#14100d" fill-rule="evenodd"/>
        <path id="Path_9" data-name="Path 9" d="M78.185,100.661H244.1l.55.585H77.636Z" fill="#14100d" fill-rule="evenodd"/>
        <path id="Path_10" data-name="Path 10" d="M77.1,101.812h168.08l.55.584H76.553Z" fill="#14100d" fill-rule="evenodd"/>
        <path id="Path_11" data-name="Path 11" d="M76.021,102.962H246.265l.55.584H75.471Z" fill="#14100d" fill-rule="evenodd"/>
        <path id="Path_12" data-name="Path 12" d="M74.939,104.113H247.347l.55.584H74.389Z" fill="#14100d" fill-rule="evenodd"/>
        <path id="Path_13" data-name="Path 13" d="M73.857,105.264H248.429l.55.585H73.307Z" fill="#14100d" fill-rule="evenodd"/>
        <path id="Path_14" data-name="Path 14" d="M72.775,106.414H249.511l.55.584H72.225Z" fill="#14100d" fill-rule="evenodd"/>
        <path id="Path_15" data-name="Path 15" d="M71.693,107.565h178.9l.55.584h-180Z" fill="#14100d" fill-rule="evenodd"/>
        <path id="Path_16" data-name="Path 16" d="M122.531,102.957h19.128l-1.832,3.919H120.7Z" fill="#14100d" fill-rule="evenodd"/>
        <path id="Path_17" data-name="Path 17" d="M125.742,98.65h17.687l-1.165,3.258H124.577Z" fill="#14100d" fill-rule="evenodd"/>
        <path id="Path_18" data-name="Path 18" d="M128.4,94.944h16.248l-1.07,2.47H127.327Z" fill="#14100d" fill-rule="evenodd"/>
        <path id="Path_19" data-name="Path 19" d="M130.646,92.606h15.036l-.706,1.735H129.941Z" fill="#14100d" fill-rule="evenodd"/>
        <path id="Path_20" data-name="Path 20" d="M199.838,102.957H180.71l1.832,3.919H201.67Z" fill="#14100d" fill-rule="evenodd"/>
        <path id="Path_21" data-name="Path 21" d="M196.627,98.65H178.941l1.165,3.258h17.687Z" fill="#14100d" fill-rule="evenodd"/>
        <path id="Path_22" data-name="Path 22" d="M193.972,94.944H177.723l1.07,2.47h16.249Z" fill="#14100d" fill-rule="evenodd"/>
        <path id="Path_23" data-name="Path 23" d="M191.723,92.606H176.687l.706,1.735h15.036Z" fill="#14100d" fill-rule="evenodd"/>
      </g>
    </g>
    <path id="Gradient_Overlay" data-name="Gradient Overlay" d="M354,125l.549-.584h178.9L534,125Zm1.082-1.15.55-.585h48.14l.265-.566H356.164l.55-.584h47.6l.265-.567H357.247l.549-.584h47.053l.265-.566H358.329l.55-.585h46.508l0,0h19.128l0,0h39.055l0,0H482.7l0,0h46.426l.549.585h-46.7l.265.566H530.2l.55.584H483.509l.265.567h47.513l.55.584H484.047l.265.566h48.057l.549.585Zm67.818-.585h42.284l-.265-.566H423.165Zm.538-1.15h41.207l-.265-.567H423.7Zm.538-1.151h40.131l-.265-.566h-39.6Zm-64.566-1.717.55-.584h47.508l.2-.566H360.493l.549-.585h46.839l.2-.566H361.575l.55-.584h46.167l.2-.566H362.657l.55-.585H524.794l.55.585H479.59l.2.566h46.085l.549.584H480l.2.566h46.755l.55.585h-47.1l.2.566H528.04l.55.584Zm65.745-.584h37.773l-.2-.566H425.358Zm.412-1.151h36.949l-.2-.566H425.769Zm.411-1.15h36.126l-.2-.566H426.181Zm-62.24-1.717.549-.584h45.986l.246-.567h-45.7l.55-.584h45.4l.245-.566H365.9l.55-.585H521.547l.55.585H477.067l.245.566H522.63l.549.584H477.564l.246.567h45.9l.55.584Zm62.783-.584h35.039l-.246-.567H426.768Zm.5-1.151h34.042l-.245-.566H427.266Zm48.265-1.717h-108.3l.549-.584h45.5l.23-.566h-45.2l.55-.585H519.384l.549.585H474.818l.23.566h45.417l.55.584Zm-47.215-.584h31.941l-.23-.566H428.3Zm-58.922-1.717.55-.584H518.3l.549.584Zm143.368-1.867V69.834h4.19v37.19Zm-27.547,0V95.808h1.92v11.216Zm-28.108,0V95.808h1.921v11.216Zm-28.107,0V95.808h1.92v11.216Zm-28.108,0V95.808h1.921v11.216Zm-29.749,0V69.834h4.189v37.19Zm5.134-12.018V92.028H511.506v2.978Zm132.354-3.429v-6.21h2.653v6.21Zm-3.228,0v-6.21h2.653v6.21Zm-3.228,0v-6.21h2.653v6.21Zm-3.228,0v-6.21h2.654v6.21Zm-3.228,0v-6.21h2.654v6.21Zm-3.228,0v-6.21H494.9v6.21Zm-3.227,0v-6.21h2.653v6.21Zm-3.228,0v-6.21h2.653v6.21Zm-3.228,0v-6.21h2.653v6.21Zm-3.228,0v-6.21h2.654v6.21Zm-3.228,0v-6.21h2.654v6.21Zm-3.228,0v-6.21h2.654v6.21Zm-3.227,0v-6.21H472.3v6.21Zm-3.228,0v-6.21h2.653v6.21Zm-3.228,0v-6.21h2.653v6.21Zm-3.228,0v-6.21h2.654v6.21Zm-3.228,0v-6.21h2.654v6.21Zm-3.228,0v-6.21h2.654v6.21Zm-3.227,0v-6.21h2.653v6.21Zm-3.228,0v-6.21H449.7v6.21Zm-3.228,0v-6.21h2.653v6.21Zm-3.228,0v-6.21h2.654v6.21Zm-3.228,0v-6.21h2.654v6.21Zm-3.227,0v-6.21h2.653v6.21Zm-3.228,0v-6.21h2.653v6.21Zm-3.228,0v-6.21h2.653v6.21Zm-3.228,0v-6.21h2.654v6.21Zm-3.228,0v-6.21h2.654v6.21Zm-3.228,0v-6.21h2.654v6.21Zm-3.227,0v-6.21h2.653v6.21Zm-3.228,0v-6.21H414.2v6.21Zm-3.228,0v-6.21h2.653v6.21Zm-3.228,0v-6.21h2.654v6.21Zm-3.228,0v-6.21h2.654v6.21Zm-3.228,0v-6.21h2.654v6.21Zm-3.227,0v-6.21h2.653v6.21Zm-3.228,0v-6.21h2.653v6.21Zm-3.228,0v-6.21H391.6v6.21Zm-3.228,0v-6.21h2.654v6.21Zm-3.228,0v-6.21h2.654v6.21Zm-3.228,0v-6.21h2.654v6.21Zm-3.227,0v-6.21h2.653v6.21ZM508.387,84.7v-6.21h2.653V84.7Zm-3.228,0v-6.21h2.653V84.7Zm-3.228,0v-6.21h2.653V84.7Zm-3.228,0v-6.21h2.654V84.7Zm-3.228,0v-6.21h2.654V84.7Zm-3.228,0v-6.21H494.9V84.7Zm-3.227,0v-6.21h2.653V84.7Zm-3.228,0v-6.21h2.653V84.7Zm-3.228,0v-6.21h2.653V84.7Zm-3.228,0v-6.21h2.654V84.7Zm-3.228,0v-6.21h2.654V84.7Zm-3.228,0v-6.21h2.654V84.7Zm-3.227,0v-6.21H472.3V84.7Zm-3.228,0v-6.21h2.653V84.7Zm-3.228,0v-6.21h2.653V84.7Zm-3.228,0v-6.21h2.654V84.7Zm-3.228,0v-6.21h2.654V84.7Zm-3.228,0v-6.21h2.654V84.7Zm-3.227,0v-6.21h2.653V84.7Zm-3.228,0v-6.21H449.7V84.7Zm-3.228,0v-6.21h2.653V84.7Zm-3.228,0v-6.21h2.654V84.7Zm-3.228,0v-6.21h2.654V84.7Zm-3.227,0v-6.21h2.653V84.7Zm-3.228,0v-6.21h2.653V84.7Zm-3.228,0v-6.21h2.653V84.7Zm-3.228,0v-6.21h2.654V84.7Zm-3.228,0v-6.21h2.654V84.7ZM418,84.7v-6.21h2.654V84.7Zm-3.227,0v-6.21h2.653V84.7Zm-3.228,0v-6.21H414.2V84.7Zm-3.228,0v-6.21h2.653V84.7Zm-3.228,0v-6.21h2.654V84.7Zm-3.228,0v-6.21h2.654V84.7Zm-3.228,0v-6.21h2.654V84.7Zm-3.227,0v-6.21h2.653V84.7Zm-3.228,0v-6.21h2.653V84.7Zm-3.228,0v-6.21H391.6V84.7Zm-3.228,0v-6.21h2.654V84.7Zm-3.228,0v-6.21h2.654V84.7Zm-3.228,0v-6.21h2.654V84.7Zm-3.227,0v-6.21h2.653V84.7Zm0-6.759V71.479H511.506v6.466Zm48.358-7.452V61.8h38.757v8.695Zm14.249-9.353V58H448.9V61.14Z" fill="url(#linear-gradient)"/>
  </g>
</svg>
