<svg xmlns="http://www.w3.org/2000/svg" width="20.407" height="15.065" viewBox="0 0 20.407 15.065">
  <defs>
    <style>
      .cls-1 {
        fill: #515151;
      }
    </style>
  </defs>
  <path id="new_vector_shape_done_копия_2" data-name="new_vector_shape_done копия 2" class="cls-1" d="M1203.33,552.965h-18.653v-.039a3.557,3.557,0,0,0,.638-.706,1.123,1.123,0,0,1,.159-.157,1.137,1.137,0,0,0,.159-.157c.13-.169.274-.324.414-.475s.291-.314.423-.487a3.063,3.063,0,0,1,.339-.353,3.063,3.063,0,0,0,.339-.352,16.751,16.751,0,0,1,1.253-1.4,16.719,16.719,0,0,0,1.258-1.406,1.14,1.14,0,0,1,.159-.156,1.138,1.138,0,0,0,.16-.158,7.759,7.759,0,0,1,.517-.587,7.727,7.727,0,0,0,.52-.59,1.431,1.431,0,0,1,.194-.192.93.93,0,0,0,.283-.337h.08a2.375,2.375,0,0,0,.525.462l.092.067,0,0,0,0c.044.05.089.1.132.149.176.13.34.273.5.412s.325.283.5.412a2.226,2.226,0,0,1,.242.227,1.371,1.371,0,0,0,.456.362,2.1,2.1,0,0,1,.441-.39c.088-.064.178-.13.256-.2.12-.1.242-.216.351-.314.25-.227.508-.461.785-.667a1.83,1.83,0,0,0,.192-.183c.149-.155.316-.328.466-.346a.925.925,0,0,0,.285.339,1.452,1.452,0,0,1,.193.19,6.19,6.19,0,0,0,.5.551,6.172,6.172,0,0,1,.5.548c.105.136.222.264.334.387s.236.258.343.4l.094.082.086.074a15.746,15.746,0,0,0,1.163,1.3,15.776,15.776,0,0,1,1.168,1.307,4.084,4.084,0,0,0,.331.365,4.11,4.11,0,0,1,.346.381l.079.067.081.069c.131.17.276.327.417.479s.29.313.42.482a1.44,1.44,0,0,0,.2.193.932.932,0,0,1,.283.335Zm.877-.96h-.02a1.035,1.035,0,0,0-.171-.183,1.2,1.2,0,0,1-.148-.151c-.127-.165-.269-.318-.406-.467s-.283-.307-.411-.473l-.079-.069-.011-.01-.09-.079c-.106-.138-.224-.267-.337-.391s-.234-.255-.339-.393l-.111-.1-.012-.011-.057-.049a14.738,14.738,0,0,0-1.075-1.205,14.713,14.713,0,0,1-1.077-1.208,4.048,4.048,0,0,0-.336-.369,4.063,4.063,0,0,1-.342-.376,1.222,1.222,0,0,0-.169-.167,1.231,1.231,0,0,1-.169-.167c-.127-.165-.269-.319-.406-.468s-.284-.307-.411-.473a1.734,1.734,0,0,0-.232-.231,1.117,1.117,0,0,1-.346-.416.869.869,0,0,0,.153-.137,1,1,0,0,1,.126-.118,6.028,6.028,0,0,0,.479-.414,5.923,5.923,0,0,1,.477-.411c.479-.356.929-.763,1.364-1.156s.886-.8,1.367-1.159a5.791,5.791,0,0,0,.475-.41,5.926,5.926,0,0,1,.481-.415,1.848,1.848,0,0,0,.23-.217,1.886,1.886,0,0,1,.228-.215c.251-.186.511-.4.817-.667.039-.034.087-.084.138-.137a1.21,1.21,0,0,1,.42-.334V552Zm-20.407,0V538.763h.06a.927.927,0,0,0,.326.3,1.908,1.908,0,0,1,.172.127c.162.142.328.284.489.422s.31.265.468.4c.239.209.48.427.713.637.544.492,1.1,1,1.7,1.442l.139.157a6.932,6.932,0,0,1,.551.473,6.9,6.9,0,0,0,.545.469c.176.131.341.275.5.414s.323.281.5.41l.016.018.123.138c.029.022.063.045.1.069.14.1.311.211.359.343a3.527,3.527,0,0,0-.551.613l-.027.034a1.112,1.112,0,0,1-.161.159,1.13,1.13,0,0,0-.158.155c-.134.175-.285.337-.431.494s-.293.315-.426.487a2.932,2.932,0,0,1-.33.344,2.963,2.963,0,0,0-.328.342,14.688,14.688,0,0,1-1.094,1.224,14.645,14.645,0,0,0-1.1,1.228,2.96,2.96,0,0,1-.319.333,2.947,2.947,0,0,0-.319.334,6.172,6.172,0,0,1-.5.552,6.1,6.1,0,0,0-.5.547l-.063.082a2.1,2.1,0,0,1-.454.486Zm10.184-6.16h0a2.805,2.805,0,0,0-.558-.492c-.113-.084-.216-.161-.3-.233-.144-.125-.288-.256-.427-.382l-.011-.01c-.323-.293-.658-.6-1.017-.863a3.63,3.63,0,0,1-.389-.353,3.639,3.639,0,0,0-.389-.353c-.536-.4-1.037-.853-1.522-1.293s-.99-.9-1.527-1.3a3.7,3.7,0,0,1-.388-.353,3.668,3.668,0,0,0-.389-.354c-.232-.172-.448-.364-.658-.549s-.426-.377-.658-.55a.954.954,0,0,1-.14-.137.981.981,0,0,0-.139-.137l-.031-.023a3.384,3.384,0,0,1-.647-.565h18.414v.039h-.02a5.434,5.434,0,0,1-.658.549,3.91,3.91,0,0,0-.314.271,3.991,3.991,0,0,1-.324.279,1,1,0,0,0-.139.137,1,1,0,0,1-.139.138c-.231.172-.448.364-.658.549s-.428.379-.658.55a3.572,3.572,0,0,0-.389.354,3.628,3.628,0,0,1-.387.352c-.479.356-.927.762-1.361,1.154s-.887.8-1.37,1.161a3.654,3.654,0,0,0-.387.352,3.689,3.689,0,0,1-.391.355c-.388.289-.761.614-1.122.929l-.014.012c-.1.087-.2.173-.3.259l-.01.008-.008.007c-.106.091-.213.182-.319.275a.934.934,0,0,0-.072.073.462.462,0,0,1-.186.143Z" transform="translate(-1183.8 -537.9)"/>
</svg>
