<svg xmlns="http://www.w3.org/2000/svg" xmlns:xlink="http://www.w3.org/1999/xlink" width="64.713" height="83.114" viewBox="0 0 64.713 83.114">
  <defs>
    <linearGradient id="linear-gradient" x1="-0.035" y1="0.5" x2="1.035" y2="0.5" gradientUnits="objectBoundingBox">
      <stop offset="0" stop-color="#f0b866"/>
      <stop offset="1" stop-color="#db7439"/>
    </linearGradient>
  </defs>
  <path id="new_vector_shape_done_копия_3" data-name="new_vector_shape_done копия 3" d="M804.155,545.334h0a10.561,10.561,0,0,0-1.915-1.981,12.317,12.317,0,0,1-1.636-1.61c-1.156-1.472-2.482-2.855-3.765-4.192a55.5,55.5,0,0,1-3.846-4.3c-.666-.859-1.348-1.733-2.007-2.577l-.038-.048c-3.621-4.64-7.365-9.437-10.641-14.52a45.54,45.54,0,0,1-2.768-5.2c-.409-.856-.832-1.741-1.291-2.634a37.493,37.493,0,0,1-3.7-11.31,27.178,27.178,0,0,1,.99-13.019,35.366,35.366,0,0,1,5.073-9.471c3.421-4.592,8.947-8.419,15.561-10.777a24.158,24.158,0,0,1,3.8-.891c.7-.126,1.432-.256,2.119-.415a2.369,2.369,0,0,1,.542-.052c.117,0,.237,0,.342.009h.007c.113,0,.22.009.326.009a1.259,1.259,0,0,0,.643-.129c.241,0,.48,0,.712,0a43.569,43.569,0,0,1,11.475,1.425,30.711,30.711,0,0,1,8.937,4.009,28.861,28.861,0,0,1,6.672,6.191,35.871,35.871,0,0,1,4.679,7.973,32.468,32.468,0,0,1,2.226,8.388,23.5,23.5,0,0,1-.535,9.574,64.041,64.041,0,0,1-7.086,15.421c-2.865,4.627-6.172,8.954-9.371,13.138l-1.134,1.485c-1.25,1.64-2.586,3.207-3.879,4.722-1.128,1.323-2.294,2.689-3.394,4.1a10.123,10.123,0,0,1-1.44,1.391,10.137,10.137,0,0,0-1.434,1.384l-.161.206c-.9,1.157-2.777,3.565-4.067,3.713ZM801.5,472.782a2.308,2.308,0,0,0-.558.055c-.356.086-.728.167-1.122.253a17.759,17.759,0,0,0-3.614,1.054,23.23,23.23,0,0,0-11.84,11.593,18.459,18.459,0,0,0-1.066,3.754c-.1.455-.187.885-.287,1.307-.65,2.73.277,6.857,1.014,8.818,2.523,6.706,6.15,10.49,12.516,13.062a23.588,23.588,0,0,0,7.693,1.788,7.791,7.791,0,0,0,1.611-.154c.684-.146,1.417-.24,2.126-.331a16.2,16.2,0,0,0,3.286-.649,22.568,22.568,0,0,0,13.362-12.083c2.022-4.443,1.509-10.972,0-14.859-3.583-9.23-10.73-13.716-21.849-13.716h-.139a1.237,1.237,0,0,1-.619.118c-.077,0-.157,0-.238,0h-.019C801.672,472.785,801.586,472.782,801.5,472.782Z" transform="translate(-772.189 -462.22)" fill="url(#linear-gradient)"/>
</svg>
