<svg xmlns="http://www.w3.org/2000/svg" width="20.406" height="20.544" viewBox="0 0 20.406 20.544">
  <defs>
    <style>
      .cls-1 {
        fill: #515151;
      }
    </style>
  </defs>
  <path id="new_vector_shape_done_копия_2" data-name="new_vector_shape_done копия 2" class="cls-1" d="M1199.512,507.673a5.247,5.247,0,0,1-.9-.1h-.2a2.415,2.415,0,0,0-.263-.051,2.22,2.22,0,0,1-.335-.07,14.144,14.144,0,0,1-2.111-.8c-.149-.076-.3-.147-.437-.215l-.009,0c-.256-.124-.5-.241-.749-.382a10.409,10.409,0,0,1-1-.673l-.017-.012-.273-.2a25.808,25.808,0,0,1-3.386-2.906,24.52,24.52,0,0,1-2.749-3.186c-.114-.163-.24-.331-.35-.48-.193-.26-.393-.528-.566-.8a23.6,23.6,0,0,1-1.434-2.686,6.422,6.422,0,0,1-.277-.76c-.047-.148-.1-.315-.161-.482-.074-.2-.141-.437-.206-.662-.037-.128-.074-.258-.112-.38a1.223,1.223,0,0,1-.043-.3,1.425,1.425,0,0,0-.036-.282,1.262,1.262,0,0,1-.08-.6.394.394,0,0,1,.07-.1.562.562,0,0,0,.049-.062l.088-.143c.115-.186.222-.36.35-.539a2.339,2.339,0,0,1,.182-.215,2.451,2.451,0,0,0,.176-.205,30.443,30.443,0,0,1,2.072-2.485,2.855,2.855,0,0,1,.268-.249c.044-.038.087-.074.13-.112a.652.652,0,0,0,.081-.092.557.557,0,0,1,.1-.107,1.106,1.106,0,0,1,.1-.067.608.608,0,0,0,.174-.133h.1a.355.355,0,0,0,.129.126.462.462,0,0,1,.109.094l.142.187c.133.174.27.354.4.534a28.069,28.069,0,0,1,1.612,2.725c.058.107.126.219.192.327s.144.238.207.356a1.876,1.876,0,0,1,.106.252,2.183,2.183,0,0,0,.093.228l.032.062a.781.781,0,0,1,.108.319,7.41,7.41,0,0,1-1.215,1.122.989.989,0,0,0-.139.14,1,1,0,0,1-.14.141.954.954,0,0,0-.461,1.483l.023.06c.049.132.087.258.125.379a4.209,4.209,0,0,0,.194.543c.134.29.3.584.452.868l.106.194a11.234,11.234,0,0,0,5.278,5.171,4.329,4.329,0,0,0,.991.264c.159.029.32.059.483.1a.952.952,0,0,0,.211.025.982.982,0,0,0,.7-.365c.029-.028.057-.056.084-.081.139-.129.274-.265.4-.4a7.551,7.551,0,0,1,.771-.707,1.443,1.443,0,0,0,.118-.1.621.621,0,0,1,.439-.218.591.591,0,0,0,.2.1.832.832,0,0,1,.16.067c.152.089.309.174.461.257l.008,0c.108.059.218.118.328.18a28.715,28.715,0,0,1,2.529,1.663l.139.1c.17.121.331.245.487.366l.005,0,.224.172.053.04,0,0a.648.648,0,0,1,.3.358.52.52,0,0,0-.1.124.726.726,0,0,1-.075.1,7.324,7.324,0,0,1-.737.68l-.213.161c-.638.483-1.3.982-1.978,1.462-.081.058-.163.118-.247.18l-.005,0a4.711,4.711,0,0,1-1.122.678A.684.684,0,0,1,1199.512,507.673Zm-1.337-9.9a.086.086,0,0,1-.043-.008,1.472,1.472,0,0,1,0-.428c.008-.095.015-.192.015-.253a3.631,3.631,0,0,0-.159-1.222,3.956,3.956,0,0,0-2.928-2.6,1.866,1.866,0,0,0-.491-.057c-.17,0-.344.015-.513.029s-.3.026-.45.028a10.429,10.429,0,0,1,.2-1.263.865.865,0,0,0,.015-.212.491.491,0,0,1,.044-.269.341.341,0,0,1,.167-.027c.044,0,.09,0,.131,0l.08,0a2.334,2.334,0,0,1,.363-.016,2.138,2.138,0,0,1,.334.016,2.437,2.437,0,0,0,.313.048,2.088,2.088,0,0,1,.4.072,7.473,7.473,0,0,1,1.056.4,5.63,5.63,0,0,1,2.828,3.046,3.546,3.546,0,0,1,.19.691l0,.009c.026.127.053.259.087.383a3.839,3.839,0,0,1,.048,1.013c0,.124-.008.251-.008.369h-.02v.021h-.021a4.665,4.665,0,0,0-.794.088c-.155.026-.315.054-.479.071-.029,0-.076.014-.13.026A1.4,1.4,0,0,1,1198.175,497.777Zm4.279-.628h0a7.372,7.372,0,0,0-.757-3.527c-.048-.1-.087-.189-.124-.279a2.758,2.758,0,0,0-.194-.4,8.349,8.349,0,0,0-4.979-3.807,7.513,7.513,0,0,0-2.151-.241,3.432,3.432,0,0,1,.119-.861,3.076,3.076,0,0,0,.066-.484,3.122,3.122,0,0,1,.053-.418h.358a1.768,1.768,0,0,0,.6.078,2.738,2.738,0,0,1,.471.041c.216.056.43.1.638.152a7.874,7.874,0,0,1,1.513.45,10.407,10.407,0,0,1,4.74,4.087,4.933,4.933,0,0,1,.308.616c.053.119.108.242.17.367a9.069,9.069,0,0,1,.916,3.988c-.221.025-.447.066-.666.105a6.81,6.81,0,0,1-1.086.136Z" transform="translate(-1183.8 -487.129)"/>
</svg>
