<svg xmlns="http://www.w3.org/2000/svg" width="36" height="32" viewBox="0 0 36 32">
  <g id="Векторный_смарт-объект" data-name="Векторный смарт-объект" transform="translate(-537 -1706)">
    <g id="Векторный_смарт-объект-2" data-name="Векторный смарт-объект" transform="translate(518.103 1674.707)">
      <g id="Group_3" data-name="Group 3">
        <path id="Path_47" data-name="Path 47" d="M24.874,34.606c0,.654-.006,1.272,0,1.89a2.83,2.83,0,0,0,2.208,2.652,3.058,3.058,0,0,0,3.383-1.271,3.5,3.5,0,0,0,.421-1.369,16.663,16.663,0,0,0,.017-1.88H42.887c0,.618,0,1.224,0,1.83a2.86,2.86,0,0,0,2.57,2.759,2.965,2.965,0,0,0,3.318-1.958,7.63,7.63,0,0,0,.143-1.673c.017-.309,0-.619,0-.983.577,0,1.135-.013,1.692,0a8.562,8.562,0,0,1,1.527.1,3.317,3.317,0,0,1,2.753,3.24q0,6.626,0,13.251,0,4.383,0,8.765a3.323,3.323,0,0,1-2.707,3.206,4.678,4.678,0,0,1-1.037.111q-14.28.009-28.559.006a3.462,3.462,0,0,1-3.69-3.37Q18.895,49,18.9,38.079c0-2.066,1.518-3.459,3.768-3.472C23.39,34.6,24.112,34.606,24.874,34.606Zm-3.606,8.817V43.8q0,7.5,0,15.01a1.162,1.162,0,0,0,1.309,1.2l12.5,0q8.068,0,16.136-.01a1.825,1.825,0,0,0,.863-.254,1.04,1.04,0,0,0,.451-1q-.007-7.488,0-14.975v-.339Z"/>
        <path id="Path_48" data-name="Path 48" d="M29.674,34.586c0,.54.006,1.08,0,1.621A1.787,1.787,0,0,1,26.1,36.2q-.012-1.62,0-3.241a1.789,1.789,0,0,1,3.569.006c.006.54,0,1.08,0,1.621Z"/>
        <path id="Path_49" data-name="Path 49" d="M44.118,34.579c0-.54,0-1.081,0-1.621a1.789,1.789,0,0,1,3.57.006q.008,1.621,0,3.242a1.787,1.787,0,0,1-3.569-.006C44.114,35.66,44.117,35.12,44.118,34.579Z"/>
        <path id="Path_50" data-name="Path 50" d="M30.925,48.916V45.674h4.732v3.241Z"/>
        <path id="Path_51" data-name="Path 51" d="M42.866,48.919H38.139V45.671h4.728Z"/>
        <path id="Path_52" data-name="Path 52" d="M45.336,48.916V45.675h4.733v3.241Z"/>
        <path id="Path_53" data-name="Path 53" d="M23.72,53.333V50.093h4.73v3.239Z"/>
        <path id="Path_54" data-name="Path 54" d="M35.663,50.085v3.243H30.93V50.085Z"/>
        <path id="Path_55" data-name="Path 55" d="M38.136,50.073h4.721v3.255H38.136Z"/>
        <path id="Path_56" data-name="Path 56" d="M50.072,53.337H45.345V50.088h4.727Z"/>
        <path id="Path_57" data-name="Path 57" d="M23.708,57.748V54.512h4.74v3.237Z"/>
        <path id="Path_58" data-name="Path 58" d="M35.661,57.754H30.934V54.506h4.727Z"/>
        <path id="Path_59" data-name="Path 59" d="M38.133,54.5h4.726v3.249H38.133Z"/>
        <path id="Path_60" data-name="Path 60" d="M45.335,57.751V54.508h4.734v3.242Z"/>
      </g>
    </g>
    <path id="Color_Overlay" data-name="Color Overlay" d="M537,1734.629q-.005-10.922,0-21.843c0-2.066,1.518-3.459,3.767-3.472.722,0,1.445,0,2.207,0,0,.654-.006,1.273,0,1.89a2.83,2.83,0,0,0,2.208,2.652,3.057,3.057,0,0,0,3.383-1.272,3.5,3.5,0,0,0,.421-1.369,16.719,16.719,0,0,0,.017-1.879H560.99c0,.617,0,1.223,0,1.83a2.859,2.859,0,0,0,2.57,2.759,2.964,2.964,0,0,0,3.318-1.958,7.632,7.632,0,0,0,.143-1.672c.017-.309,0-.619,0-.983.577,0,1.135-.013,1.692,0a8.586,8.586,0,0,1,1.526.105,3.318,3.318,0,0,1,2.754,3.24q0,6.626,0,13.252,0,4.382,0,8.765a3.323,3.323,0,0,1-2.706,3.206,4.662,4.662,0,0,1-1.038.111q-14.279.01-28.559.006A3.462,3.462,0,0,1,537,1734.629Zm2.368-16.126q0,7.506,0,15.01a1.162,1.162,0,0,0,1.31,1.2l12.5,0q8.068,0,16.136-.011a1.816,1.816,0,0,0,.863-.254,1.038,1.038,0,0,0,.451-1q-.007-7.488,0-14.975v-.339H539.371Zm9.666,13.958v-3.248h4.727v3.248Zm14.4,0v-3.243h4.733v3.243Zm-21.628,0v-3.236h4.74v3.236Zm14.425,0v-3.248h4.726v3.248Zm7.212-4.411V1724.8h4.728v3.249Zm-21.624,0V1724.8h4.729v3.239Zm14.416,0v-3.254h4.721v3.254Zm-7.207,0v-3.243h4.734v3.243Zm7.209-4.408v-3.249h4.728v3.249Zm7.2,0v-3.241h4.733v3.241Zm-14.411,0v-3.242h4.732v3.242ZM564,1712.6a1.726,1.726,0,0,1-1.782-1.689c0-.541,0-1.081,0-1.622s0-1.08,0-1.621a1.789,1.789,0,0,1,3.57.006q.008,1.621,0,3.242a1.717,1.717,0,0,1-1.782,1.684Zm-18.014,0a1.722,1.722,0,0,1-1.781-1.689q-.011-1.62,0-3.241a1.789,1.789,0,0,1,3.569.006c.006.54,0,1.08,0,1.621h0c0,.54.006,1.08,0,1.62A1.72,1.72,0,0,1,546,1712.6Z" fill="#404040"/>
  </g>
</svg>
