<svg xmlns="http://www.w3.org/2000/svg" width="279.418" height="263.895" viewBox="0 0 279.418 263.895">
  <g id="Векторный_смарт-объект_копия" data-name="Векторный смарт-объект копия" transform="translate(-958.422 -826.131)">
    <g id="Векторный_смарт-объект_копия-2" data-name="Векторный смарт-объект копия" transform="translate(958.425 826.133)">
      <g id="Group_3" data-name="Group 3" transform="translate(0 0)">
        <path id="Path_47" data-name="Path 47" d="M58.608,23.823c0,5.4-.043,10.493.009,15.589A23.025,23.025,0,0,0,75.752,61.28C86.131,63.936,96.914,59.9,102.01,50.8a30.148,30.148,0,0,0,3.271-11.289c.547-5.05.134-10.2.134-15.5h93c0,5.092-.02,10.091,0,15.09a23.062,23.062,0,0,0,19.95,22.753c11.706,1.579,22.743-5.036,25.755-16.144,1.189-4.388.864-9.18,1.109-13.794.135-2.546.024-5.1.024-8.1,4.478,0,8.808-.1,13.13.03,3.962.124,8.037,0,11.851.864a26.945,26.945,0,0,1,21.369,26.721q.033,54.64.016,109.28,0,36.142-.023,72.284A27.009,27.009,0,0,1,270.6,259.425a34.263,34.263,0,0,1-8.051.914q-110.832.075-221.664.053c-16.271.005-28.633-11.875-28.64-27.795q-.041-90.068,0-180.136C12.246,35.42,24.024,23.94,41.483,23.829,47.086,23.792,52.691,23.823,58.608,23.823ZM30.619,96.536v3.076q.009,61.891.023,123.781c0,6.169,3.867,9.9,10.162,9.9q48.493-.014,96.987-.016,62.619,0,125.237-.083a13.562,13.562,0,0,0,6.7-2.1c2.933-1.819,3.506-4.96,3.5-8.269q-.054-61.748-.015-123.5v-2.8Z" transform="translate(-12.218 3.501)"/>
        <path id="Path_48" data-name="Path 48" d="M44.624,48.653c0,4.454.044,8.91-.01,13.364a13.847,13.847,0,1,1-27.695-.05q-.091-13.363,0-26.728a13.851,13.851,0,0,1,27.7.05c.05,4.454.009,8.909.009,13.364Z" transform="translate(39.024 -21.496)"/>
        <path id="Path_49" data-name="Path 49" d="M28.538,48.6c0-4.456-.028-8.912.009-13.368a13.855,13.855,0,0,1,27.709.051q.065,13.367-.012,26.735a13.852,13.852,0,1,1-27.7-.05C28.507,57.513,28.535,53.057,28.538,48.6Z" transform="translate(167.213 -21.497)"/>
        <path id="Path_50" data-name="Path 50" d="M19.995,58.108V31.377H56.724V58.108Z" transform="translate(73.358 87.223)"/>
        <path id="Path_51" data-name="Path 51" d="M61.353,58.166H24.659V31.375H61.353Z" transform="translate(124.685 87.195)"/>
        <path id="Path_52" data-name="Path 52" d="M29.313,58.108V31.377H66.049V58.108Z" transform="translate(175.893 87.225)"/>
        <path id="Path_53" data-name="Path 53" d="M15.337,61.128V34.413H52.05V61.128Z" transform="translate(22.097 120.627)"/>
        <path id="Path_54" data-name="Path 54" d="M56.738,34.407V61.148H20V34.407Z" transform="translate(73.394 120.567)"/>
        <path id="Path_55" data-name="Path 55" d="M24.658,34.4H61.3V61.239H24.658Z" transform="translate(124.669 120.477)"/>
        <path id="Path_56" data-name="Path 56" d="M66.01,61.2H29.318V34.409H66.01Z" transform="translate(175.955 120.589)"/>
        <path id="Path_57" data-name="Path 57" d="M15.329,64.14V37.448H52.12V64.14Z" transform="translate(22.011 154.031)"/>
        <path id="Path_58" data-name="Path 58" d="M56.686,64.228H20V37.445H56.686Z" transform="translate(73.424 153.989)"/>
        <path id="Path_59" data-name="Path 59" d="M24.655,37.44H61.34V64.229H24.655Z" transform="translate(124.644 153.939)"/>
        <path id="Path_60" data-name="Path 60" d="M29.312,64.185V37.446H66.054V64.185Z" transform="translate(175.89 154.007)"/>
      </g>
    </g>
    <path id="Color_Overlay" data-name="Color Overlay" d="M.024,236.1q-.048-90.071,0-180.131c0-17.038,11.787-28.522,29.246-28.631,5.6-.043,11.2-.011,17.124-.011,0,5.392-.043,10.491.011,15.59A23,23,0,0,0,63.539,64.78C73.912,67.439,84.693,63.409,89.793,54.3a30.284,30.284,0,0,0,3.273-11.29c.54-5.056.129-10.2.129-15.5h93c0,5.089-.011,10.091.011,15.094A23.064,23.064,0,0,0,206.15,65.353C217.862,66.93,228.9,60.318,231.906,49.2c1.189-4.386.864-9.172,1.113-13.785.14-2.55.021-5.11.021-8.1,4.484,0,8.817-.108,13.138.021,3.954.13,8.037,0,11.852.865a26.945,26.945,0,0,1,21.36,26.728q.031,54.631.021,109.281,0,36.139-.021,72.277a27.021,27.021,0,0,1-21.014,26.438,34.133,34.133,0,0,1-8.049.918q-110.831.081-221.662.054C12.395,263.895.024,252.022.024,236.1ZM18.4,103.112q.016,61.889.022,123.779c0,6.169,3.868,9.908,10.167,9.908q48.487-.016,96.986-.022,62.619,0,125.238-.087a13.47,13.47,0,0,0,6.7-2.1c2.927-1.816,3.5-4.96,3.5-8.266q-.049-61.743-.011-123.5v-2.8H18.4Zm75.022,115.1V191.434h36.689v26.782Zm111.776-.021V191.455h36.743v26.739Zm-55.9-.022V191.38h36.679v26.793Zm-111.96,0v-26.7H74.127v26.7Zm167.935-36.387V155h36.689v26.782Zm-167.838-.033V155.036H74.149v26.718Zm111.885-.032V154.874h36.646v26.848Zm-55.931-.011V154.971h36.744V181.71Zm55.953-36.344V118.573h36.7v26.793Zm55.866-.032V118.605h36.733v26.729Zm-111.852,0V118.605h36.723v26.729ZM209.585,54.41a13.784,13.784,0,0,1-13.828-13.937c-.033-4.452-.012-8.913,0-13.365s-.033-8.913,0-13.375a13.856,13.856,0,0,1,27.712.055q.063,13.369-.011,26.738a13.712,13.712,0,0,1-13.83,13.884ZM69.763,54.4A13.746,13.746,0,0,1,55.944,40.472q-.1-13.37,0-26.729a13.851,13.851,0,0,1,27.7.055c.054,4.451.011,8.9.011,13.364h-.011c0,4.451.043,8.9-.011,13.363A13.724,13.724,0,0,1,69.827,54.4Z" transform="translate(958.422 826.131)" fill="#db7439"/>
  </g>
</svg>
